<svg  viewBox="0 0 62 62" fill="none" xmlns="http://www.w3.org/2000/svg">
    <path d="M56.2289 47.629C56.021 47.629 55.8091 47.5731 55.6172 47.4552C55.0675 47.1174 54.8977 46.3978 55.2355 45.8502C57.9977 41.3649 59.4569 36.1941 59.4569 30.8973C59.4569 16.9999 49.5389 5.16919 35.8734 2.76867C35.2378 2.65673 34.8141 2.05111 34.9259 1.4175C35.0379 0.781886 35.6435 0.358147 36.2772 0.470078C43.3428 1.71131 49.8048 5.42703 54.47 10.9297C59.1911 16.4962 61.7894 23.5899 61.7894 30.8994C61.7894 36.6278 60.2104 42.2224 57.2203 47.0754C57.0044 47.4312 56.6206 47.629 56.2289 47.629Z" fill="url(#paint0_linear_9953_228533)"/>
    <path d="M51.218 47.1877C50.9762 47.1877 50.7304 47.1117 50.5225 46.9559C50.0048 46.5701 49.8989 45.8385 50.2846 45.3229C53.4087 41.1295 55.0617 36.1405 55.0617 30.8957C55.0617 21.1477 49.2572 12.4031 40.2748 8.61747C39.6811 8.36758 39.4013 7.68201 39.6531 7.08837C39.903 6.49474 40.5886 6.21691 41.1822 6.46676C51.0321 10.6182 57.3962 20.2083 57.3962 30.8957C57.3962 36.6482 55.5834 42.1188 52.1575 46.718C51.9256 47.0258 51.5759 47.1877 51.218 47.1877Z" fill="url(#paint1_linear_9953_228533)"/>
    <path d="M46.5824 46.358C46.3026 46.358 46.0208 46.258 45.797 46.0542C45.3212 45.6205 45.2872 44.8809 45.721 44.4052C49.0949 40.7055 50.9518 35.9084 50.9518 30.8974C50.9518 21.4633 44.2618 13.2104 35.0456 11.2716C34.414 11.1396 34.0102 10.52 34.1441 9.88836C34.2761 9.25675 34.8956 8.85505 35.5272 8.98699C40.4782 10.0283 44.9834 12.7666 48.2114 16.7002C51.4854 20.6877 53.2883 25.7306 53.2883 30.8974C53.2883 36.492 51.2136 41.8487 47.4479 45.9782C47.216 46.23 46.9003 46.358 46.5824 46.358Z" fill="url(#paint2_linear_9953_228533)"/>
    <path d="M48.0526 32.0624C47.407 32.0624 46.8853 31.5407 46.8853 30.8951C46.8853 22.0785 39.7117 14.9049 30.8951 14.9049C29.6998 14.9049 28.5106 15.0368 27.3553 15.2966C26.7277 15.4386 26.102 15.0448 25.9602 14.4152C25.8183 13.7856 26.212 13.162 26.8416 13.0201C28.1628 12.7222 29.528 12.5703 30.8951 12.5703C40.9989 12.5703 49.2198 20.7912 49.2198 30.8951C49.2198 31.5407 48.6982 32.0624 48.0526 32.0624Z" fill="url(#paint3_linear_9953_228533)"/>
    <path d="M43.921 32.0627C43.2754 32.0627 42.7537 31.5411 42.7537 30.8954C42.7537 24.3574 37.4351 19.0367 30.895 19.0367C30.2494 19.0367 29.7278 18.5151 29.7278 17.8694C29.7278 17.2238 30.2494 16.7021 30.895 16.7021C38.7202 16.7021 45.0883 23.0683 45.0883 30.8954C45.0883 31.5411 44.5647 32.0627 43.921 32.0627Z" fill="url(#paint4_linear_9953_228533)"/>
    <path d="M37.9708 37.2632C37.7309 37.2632 37.4891 37.1892 37.2791 37.0353C36.7595 36.6536 36.6496 35.922 37.0313 35.4043C37.9987 34.0911 38.5084 32.5321 38.5084 30.897C38.5084 26.6997 35.0925 23.2837 30.8951 23.2837C30.2495 23.2837 29.7278 22.762 29.7278 22.1165C29.7278 21.4709 30.2495 20.9492 30.8951 20.9492C36.3797 20.9492 40.841 25.4104 40.841 30.8951C40.841 33.0337 40.1734 35.0705 38.9081 36.7875C38.6843 37.0993 38.3306 37.2632 37.9708 37.2632Z" fill="url(#paint5_linear_9953_228533)"/>
    <path d="M30.8951 61.792C19.4161 61.792 8.94659 55.4838 3.57189 45.3301C3.27008 44.7604 3.48794 44.0549 4.05759 43.753C4.62724 43.4513 5.33281 43.6692 5.63462 44.2388C10.6036 53.627 20.2836 59.4594 30.8951 59.4594C37.6329 59.4594 44.1749 57.0689 49.3137 52.7275C49.8074 52.3119 50.543 52.3738 50.9587 52.8655C51.3745 53.3572 51.3125 54.0947 50.8208 54.5105C45.2603 59.2056 38.1846 61.792 30.8951 61.792Z" fill="url(#paint6_linear_9953_228533)"/>
    <path d="M30.8967 57.3973C19.7396 57.3973 9.71369 50.3456 5.94803 39.8501C5.73017 39.2425 6.04598 38.5749 6.6516 38.357C7.25923 38.1392 7.92682 38.4549 8.14469 39.0606C11.5786 48.6307 20.723 55.0627 30.8967 55.0627C37.2268 55.0627 43.2131 52.6323 47.7483 48.217C48.2101 47.7672 48.9496 47.7772 49.3993 48.239C49.8491 48.7007 49.8391 49.4401 49.3773 49.8899C44.4024 54.731 37.8384 57.3973 30.8967 57.3973Z" fill="url(#paint7_linear_9953_228533)"/>
    <path d="M30.8954 53.2861C20.238 53.2861 11.0017 45.7088 8.93291 35.2712C8.80703 34.6396 9.21872 34.0239 9.85033 33.9C10.4819 33.7761 11.0976 34.1858 11.2215 34.8174C13.0744 44.1677 21.3473 50.9516 30.8954 50.9516C34.821 50.9516 38.6227 49.8182 41.8887 47.6735C42.4283 47.3198 43.1519 47.4696 43.5056 48.0074C43.8595 48.547 43.7095 49.2706 43.1719 49.6243C39.5241 52.0209 35.2787 53.2861 30.8954 53.2861Z" fill="url(#paint8_linear_9953_228533)"/>
    <path d="M30.8946 49.2201C24.4346 49.2201 18.3822 45.7602 15.0983 40.1897C14.7705 39.634 14.9564 38.9184 15.512 38.5906C16.0677 38.2628 16.7832 38.4487 17.111 39.0044C19.9773 43.8654 25.26 46.8855 30.8965 46.8855C35.7016 46.8855 40.2069 44.7529 43.261 41.0371C43.6707 40.5395 44.4062 40.4675 44.904 40.8752C45.4017 41.285 45.4736 42.0206 45.0658 42.5182C41.564 46.7776 36.4011 49.2201 30.8946 49.2201Z" fill="url(#paint9_linear_9953_228533)"/>
    <path d="M30.895 45.0883C25.0886 45.0883 19.9237 41.6124 17.7391 36.2317C17.4972 35.6341 17.7851 34.9545 18.3806 34.7107C18.9783 34.4688 19.6579 34.7566 19.9018 35.3523C21.7266 39.8475 26.042 42.7537 30.895 42.7537C34.6467 42.7537 38.0966 41.0347 40.3612 38.0386C40.7509 37.5249 41.4825 37.423 41.9961 37.8107C42.5098 38.1985 42.6118 38.9321 42.224 39.4458C39.5136 43.0316 35.3842 45.0883 30.895 45.0883Z" fill="url(#paint10_linear_9953_228533)"/>
    <path d="M30.8947 40.8425C27.7447 40.8425 24.7485 39.3275 22.8797 36.789C22.4979 36.2693 22.6078 35.5398 23.1276 35.158C23.6472 34.7762 24.3768 34.8862 24.7585 35.4059C26.1897 37.3487 28.4822 38.51 30.8928 38.51C31.5384 38.51 32.0601 39.0316 32.0601 39.6772C32.062 40.3208 31.5403 40.8425 30.8947 40.8425Z" fill="url(#paint11_linear_9953_228533)"/>
    <path d="M1.99677 39.07C1.4711 39.07 0.99339 38.7102 0.863467 38.1765C0.289821 35.806 0 33.3575 0 30.895C0 13.8595 13.8595 0 30.895 0C31.5406 0 32.0623 0.521679 32.0623 1.16728C32.0623 1.81289 31.5406 2.33456 30.895 2.33456C15.1467 2.33456 2.33257 15.1467 2.33257 30.895C2.33257 33.1716 2.6004 35.4362 3.13007 37.6289C3.28198 38.2544 2.89622 38.886 2.2686 39.0379C2.17866 39.06 2.08672 39.07 1.99677 39.07Z" fill="url(#paint12_linear_9953_228533)"/>
    <path d="M5.90781 36.2729C5.34816 36.2729 4.85446 35.8691 4.75852 35.2975C4.51667 33.8523 4.39474 32.3713 4.39474 30.8962C4.39474 16.2832 16.2834 4.39648 30.8944 4.39648C31.3062 4.39648 31.7239 4.40648 32.1337 4.42447C32.7773 4.45445 33.2749 5.00011 33.245 5.64371C33.215 6.28732 32.6654 6.78702 32.0257 6.75503C31.652 6.73704 31.2702 6.72904 30.8944 6.72904C17.5686 6.72904 6.7293 17.5704 6.7293 30.8942C6.7293 32.2413 6.84124 33.5925 7.0611 34.9117C7.16704 35.5473 6.7373 36.1489 6.10169 36.2548C6.03773 36.2688 5.97177 36.2729 5.90781 36.2729Z" fill="url(#paint13_linear_9953_228533)"/>
    <path d="M9.67272 32.0627C9.02711 32.0627 8.50543 31.541 8.50543 30.8954C8.50543 25.2289 10.6262 19.8222 14.4778 15.6708C18.3074 11.5413 23.4982 9.02283 29.0927 8.57709C29.7324 8.52516 30.298 9.00482 30.348 9.64847C30.4 10.2901 29.9203 10.8537 29.2767 10.9037C18.937 11.7272 10.838 20.5098 10.838 30.8954C10.84 31.541 10.3183 32.0627 9.67272 32.0627Z" fill="url(#paint14_linear_9953_228533)"/>
    <path d="M13.7612 32.9948C13.1455 32.9948 12.6299 32.513 12.5959 31.8894C12.5779 31.5616 12.5699 31.2279 12.5699 30.8961C12.5699 24.5359 15.7939 18.7235 21.1946 15.3476C21.7423 15.0058 22.4618 15.1717 22.8036 15.7194C23.1454 16.2651 22.9795 16.9866 22.4318 17.3284C17.7187 20.2746 14.9045 25.3474 14.9045 30.898C14.9045 31.1878 14.9124 31.4797 14.9285 31.7655C14.9624 32.4091 14.4687 32.9588 13.8251 32.9927C13.8032 32.9948 13.7832 32.9948 13.7612 32.9948Z" fill="url(#paint15_linear_9953_228533)"/>
    <path d="M17.872 32.2448C17.2344 32.2448 16.7147 31.7331 16.7047 31.0934C16.7047 31.0274 16.7028 30.9615 16.7028 30.8976C16.7028 25.2171 20.0767 20.0962 25.2955 17.8516C25.8871 17.5977 26.5746 17.8716 26.8285 18.4632C27.0823 19.0548 26.8086 19.7424 26.2169 19.9962C21.8536 21.8711 19.0353 26.1485 19.0353 30.8976C19.0353 30.9535 19.0353 31.0075 19.0373 31.0635C19.0453 31.7091 18.5296 32.2367 17.886 32.2467C17.882 32.2448 17.878 32.2448 17.872 32.2448Z" fill="url(#paint16_linear_9953_228533)"/>
    <path d="M22.1156 32.0631C21.4701 32.0631 20.9484 31.5414 20.9484 30.8958C20.9484 27.9696 22.2296 25.2034 24.4623 23.3085C24.9539 22.8908 25.6895 22.9528 26.1072 23.4424C26.525 23.9341 26.463 24.6697 25.9733 25.0874C24.2644 26.5385 23.2829 28.6552 23.2829 30.8939C23.281 31.5414 22.7593 32.0631 22.1156 32.0631Z" fill="url(#paint17_linear_9953_228533)"/>
    <defs>
    <linearGradient id="paint0_linear_9953_228533" x1="62.8443" y1="41.934" x2="39.2266" y2="2.52767" gradientUnits="userSpaceOnUse">
    <stop stop-color="#FBB92F" stop-opacity="0"/>
    <stop offset="1" stop-color="#F9BB17"/>
    </linearGradient>
    <linearGradient id="paint1_linear_9953_228533" x1="55.622" y1="41.6704" x2="45.0527" y2="11.6589" gradientUnits="userSpaceOnUse">
    <stop stop-color="#FBCE68" stop-opacity="0"/>
    <stop offset="1" stop-color="#FBD263"/>
    </linearGradient>
    <linearGradient id="paint2_linear_9953_228533" x1="51.3403" y1="40.944" x2="40.1186" y2="13.0203" gradientUnits="userSpaceOnUse">
    <stop stop-color="#FBB92F" stop-opacity="0"/>
    <stop offset="1" stop-color="white"/>
    </linearGradient>
    <linearGradient id="paint3_linear_9953_228533" x1="49.2667" y1="29.5059" x2="33.2171" y2="14.7611" gradientUnits="userSpaceOnUse">
    <stop stop-color="#FBB92F" stop-opacity="0"/>
    <stop offset="1" stop-color="#F9BB17"/>
    </linearGradient>
    <linearGradient id="paint4_linear_9953_228533" x1="42.6021" y1="26.4589" x2="32.9463" y2="20.4566" gradientUnits="userSpaceOnUse">
    <stop stop-color="#FBCE68" stop-opacity="0"/>
    <stop offset="1" stop-color="#FBD263"/>
    </linearGradient>
    <linearGradient id="paint5_linear_9953_228533" x1="39.8494" y1="34.184" x2="31.8898" y2="19.9611" gradientUnits="userSpaceOnUse">
    <stop stop-color="#FBB92F" stop-opacity="0"/>
    <stop offset="1" stop-color="white"/>
    </linearGradient>
    <linearGradient id="paint6_linear_9953_228533" x1="10.972" y1="47.8859" x2="49.9216" y2="61.1953" gradientUnits="userSpaceOnUse">
    <stop stop-color="#FBCE68" stop-opacity="0"/>
    <stop offset="1" stop-color="#FBD263"/>
    </linearGradient>
    <linearGradient id="paint7_linear_9953_228533" x1="10.611" y1="44.476" x2="44.6022" y2="54.6538" gradientUnits="userSpaceOnUse">
    <stop stop-color="#FBB92F" stop-opacity="0"/>
    <stop offset="1" stop-color="white"/>
    </linearGradient>
    <linearGradient id="paint8_linear_9953_228533" x1="11.6448" y1="40.2176" x2="34.6621" y2="50.4729" gradientUnits="userSpaceOnUse">
    <stop stop-color="#FBB92F" stop-opacity="0"/>
    <stop offset="1" stop-color="#F9BB17"/>
    </linearGradient>
    <linearGradient id="paint9_linear_9953_228533" x1="19.8639" y1="44.0024" x2="42.5029" y2="42.9585" gradientUnits="userSpaceOnUse">
    <stop stop-color="#FBCE68" stop-opacity="0"/>
    <stop offset="1" stop-color="#FBD263"/>
    </linearGradient>
    <linearGradient id="paint10_linear_9953_228533" x1="22.2629" y1="39.708" x2="43.2057" y2="41.0129" gradientUnits="userSpaceOnUse">
    <stop stop-color="#FBB92F" stop-opacity="0"/>
    <stop offset="1" stop-color="white"/>
    </linearGradient>
    <linearGradient id="paint11_linear_9953_228533" x1="25.4978" y1="37.6408" x2="35.1536" y2="39.2066" gradientUnits="userSpaceOnUse">
    <stop stop-color="#FBB92F" stop-opacity="0"/>
    <stop offset="1" stop-color="#F9BB17"/>
    </linearGradient>
    <linearGradient id="paint12_linear_9953_228533" x1="24.2881" y1="-1.04682" x2="-0.243046" y2="36.598" gradientUnits="userSpaceOnUse">
    <stop stop-color="#FBB92F" stop-opacity="0"/>
    <stop offset="1" stop-color="white"/>
    </linearGradient>
    <linearGradient id="paint13_linear_9953_228533" x1="24.6806" y1="5.80806" x2="6.15182" y2="32.6879" gradientUnits="userSpaceOnUse">
    <stop stop-color="#FBB92F" stop-opacity="0"/>
    <stop offset="1" stop-color="#F9BB17"/>
    </linearGradient>
    <linearGradient id="paint14_linear_9953_228533" x1="24.6564" y1="9.6238" x2="10.6945" y2="29.0659" gradientUnits="userSpaceOnUse">
    <stop stop-color="#FBCE68" stop-opacity="0"/>
    <stop offset="1" stop-color="#FBD263"/>
    </linearGradient>
    <linearGradient id="paint15_linear_9953_228533" x1="19.3485" y1="16.9838" x2="15.3687" y2="30.6195" gradientUnits="userSpaceOnUse">
    <stop stop-color="#FBB92F" stop-opacity="0"/>
    <stop offset="1" stop-color="white"/>
    </linearGradient>
    <linearGradient id="paint16_linear_9953_228533" x1="23.2656" y1="20.3036" x2="19.0248" y2="29.6332" gradientUnits="userSpaceOnUse">
    <stop stop-color="#FBB92F" stop-opacity="0"/>
    <stop offset="1" stop-color="#F9BB17"/>
    </linearGradient>
    <linearGradient id="paint17_linear_9953_228533" x1="24.4153" y1="24.0539" x2="22.6536" y2="30.9696" gradientUnits="userSpaceOnUse">
    <stop stop-color="#FBCE68" stop-opacity="0"/>
    <stop offset="1" stop-color="#FBD263"/>
    </linearGradient>
    </defs>
    </svg>
    