<svg xmlns="http://www.w3.org/2000/svg" width="25" height="25" viewBox="0 0 25 25" fill="none">
    <path d="M12.5002 3.5C10.71 3.5 8.9931 4.21116 7.72723 5.47703C6.46136 6.7429 5.7502 8.45979 5.7502 10.25V13.8515L4.3042 17.4725C4.25891 17.5862 4.24215 17.7093 4.25536 17.831C4.26858 17.9527 4.31138 18.0693 4.38002 18.1706C4.44867 18.272 4.54108 18.355 4.64918 18.4124C4.75729 18.4698 4.8778 18.4999 5.0002 18.5H20.0002C20.1226 18.4999 20.2431 18.4698 20.3512 18.4124C20.4593 18.355 20.5517 18.272 20.6204 18.1706C20.689 18.0693 20.7318 17.9527 20.745 17.831C20.7583 17.7093 20.7415 17.5862 20.6962 17.4725L19.2502 13.85V10.25C19.2502 8.45979 18.539 6.7429 17.2732 5.47703C16.0073 4.21116 14.2904 3.5 12.5002 3.5ZM12.5002 22.25C11.835 22.2502 11.1886 22.0292 10.6626 21.6219C10.1367 21.2146 9.76101 20.6441 9.5947 20H15.4057C15.2394 20.6441 14.8637 21.2146 14.3378 21.6219C13.8118 22.0292 13.1654 22.2502 12.5002 22.25Z" fill="white"/>
  </svg>