<svg width="25" height="24" viewBox="0 0 25 24" fill="none" xmlns="http://www.w3.org/2000/svg">
    <path d="M22.166 8.27V4.23C22.166 2.64 21.526 2 19.936 2H15.896C14.306 2 13.666 2.64 13.666 4.23V8.27C13.666 9.86 14.306 10.5 15.896 10.5H19.936C21.526 10.5 22.166 9.86 22.166 8.27Z" stroke="#888892" stroke-width="1.5" stroke-linecap="round" stroke-linejoin="round"/>
    <path d="M10.666 8.52V3.98C10.666 2.57 10.026 2 8.43602 2H4.39602C2.80602 2 2.16602 2.57 2.16602 3.98V8.51C2.16602 9.93 2.80602 10.49 4.39602 10.49H8.43602C10.026 10.5 10.666 9.93 10.666 8.52Z" stroke="#888892" stroke-width="1.5" stroke-linecap="round" stroke-linejoin="round"/>
    <path d="M10.666 19.77V15.73C10.666 14.14 10.026 13.5 8.43602 13.5H4.39602C2.80602 13.5 2.16602 14.14 2.16602 15.73V19.77C2.16602 21.36 2.80602 22 4.39602 22H8.43602C10.026 22 10.666 21.36 10.666 19.77Z" stroke="#888892" stroke-width="1.5" stroke-linecap="round" stroke-linejoin="round"/>
    <path d="M15.166 15.5H21.166" stroke="#888892" stroke-width="1.5" stroke-linecap="round"/>
    <path d="M15.166 19.5H21.166" stroke="#888892" stroke-width="1.5" stroke-linecap="round"/>
    </svg>
    