<svg width="174" height="149" viewBox="0 0 174 149" fill="none" xmlns="http://www.w3.org/2000/svg">
<rect x="0.942383" width="172.307" height="149" rx="16.648" fill="white"/>
<rect x="12.5962" y="11.6536" width="149" height="79.0782" rx="4.33997" fill="#EFF2F6"/>
<path d="M70.9972 47.6968V45.2009C70.9972 44.4922 71.1358 43.768 71.4132 43.0285C71.6905 42.289 72.0564 41.5918 72.5109 40.937C72.9654 40.2822 73.4584 39.7353 73.99 39.2962L76.1623 40.5788C75.731 41.2567 75.3766 41.9654 75.0993 42.705C74.8297 43.4445 74.6948 44.2688 74.6948 45.1778V47.6968H70.9972ZM76.8325 47.6968V45.2009C76.8325 44.4922 76.9712 43.768 77.2485 43.0285C77.5259 42.289 77.8918 41.5918 78.3463 40.937C78.8008 40.2822 79.2938 39.7353 79.8253 39.2962L81.9977 40.5788C81.5663 41.2567 81.212 41.9654 80.9346 42.705C80.665 43.4445 80.5302 44.2688 80.5302 45.1778V47.6968H76.8325ZM92.2558 47.6968V45.2009C92.2558 44.4922 92.3945 43.768 92.6718 43.0285C92.9491 42.289 93.315 41.5918 93.7695 40.937C94.224 40.2822 94.7171 39.7353 95.2486 39.2962L97.421 40.5788C96.9896 41.2567 96.6352 41.9654 96.3579 42.705C96.0883 43.4445 95.9535 44.2688 95.9535 45.1778V47.6968H92.2558ZM98.0912 47.6968V45.2009C98.0912 44.4922 98.2298 43.768 98.5072 43.0285C98.7845 42.289 99.1504 41.5918 99.6049 40.937C100.059 40.2822 100.552 39.7353 101.084 39.2962L103.256 40.5788C102.825 41.2567 102.471 41.9654 102.193 42.705C101.924 43.4445 101.789 44.2688 101.789 45.1778V47.6968H98.0912Z" fill="#9CB0C9"/>
<rect x="12.5962" y="100.721" width="149" height="32.4637" rx="8.32402" fill="#BFD4E4"/>
</svg>
