<svg width="30" height="24" viewBox="0 0 30 24" fill="none" xmlns="http://www.w3.org/2000/svg">
    <path d="M9.39518 5H20.2702C21.0193 5 21.6839 5.02 22.276 5.09C25.4539 5.38 26.3118 6.62 26.3118 10V14C26.3118 17.38 25.4539 18.62 22.276 18.91C21.6839 18.98 21.0193 19 20.2702 19H9.39518C8.64602 19 7.98143 18.98 7.38935 18.91C4.21143 18.62 3.35352 17.38 3.35352 14V10C3.35352 6.62 4.21143 5.38 7.38935 5.09C7.98143 5.02 8.64602 5 9.39518 5Z" stroke="#292D32" stroke-width="1.5" stroke-linecap="round" stroke-linejoin="round"/>
    <path d="M5.77051 2H23.8955" stroke="#292D32" stroke-width="1.5" stroke-linecap="round" stroke-linejoin="round"/>
    <path d="M6.375 22H24.5" stroke="#292D32" stroke-width="1.5" stroke-linecap="round" stroke-linejoin="round"/>
    </svg>
    