<svg width="25" height="24" viewBox="0 0 25 24" fill="none" xmlns="http://www.w3.org/2000/svg">
    <path d="M9.28038 5H16.3856C16.8751 5 17.3093 5.02 17.6962 5.09C19.7725 5.38 20.333 6.62 20.333 10V14C20.333 17.38 19.7725 18.62 17.6962 18.91C17.3093 18.98 16.8751 19 16.3856 19H9.28038C8.7909 19 8.35669 18.98 7.96985 18.91C5.89353 18.62 5.33301 17.38 5.33301 14V10C5.33301 6.62 5.89353 5.38 7.96985 5.09C8.35669 5.02 8.7909 5 9.28038 5Z" stroke="#292D32" stroke-width="1.5" stroke-linecap="round" stroke-linejoin="round"/>
    <path d="M4.83301 2H19.833" stroke="#292D32" stroke-width="1.5" stroke-linecap="round" stroke-linejoin="round"/>
    <path d="M5.33301 22H20.333" stroke="#292D32" stroke-width="1.5" stroke-linecap="round" stroke-linejoin="round"/>
    </svg>
    