<svg width="31" height="24" viewBox="0 0 31 24" fill="none" xmlns="http://www.w3.org/2000/svg">
    <path d="M5.15789 6H10.8421C11.2337 6 11.5811 6.01714 11.8905 6.07714C13.5516 6.32571 14 7.38857 14 10.2857V13.7143C14 16.6114 13.5516 17.6743 11.8905 17.9229C11.5811 17.9829 11.2337 18 10.8421 18H5.15789C4.76632 18 4.41895 17.9829 4.10947 17.9229C2.44842 17.6743 2 16.6114 2 13.7143V10.2857C2 7.38857 2.44842 6.32571 4.10947 6.07714C4.41895 6.01714 4.76632 6 5.15789 6Z" stroke="#292D32" stroke-width="1.5" stroke-linecap="round" stroke-linejoin="round"/>
    <path d="M21.1579 7H26.8421C27.2337 7 27.5811 7.00143 27.8905 7.00643C29.5516 7.02714 30 7.11571 30 7.35714V7.64286C30 7.88429 29.5516 7.97286 27.8905 7.99357C27.5811 7.99857 27.2337 8 26.8421 8H21.1579C20.7663 8 20.4189 7.99857 20.1095 7.99357C18.4484 7.97286 18 7.88429 18 7.64286V7.35714C18 7.11571 18.4484 7.02714 20.1095 7.00643C20.4189 7.00143 20.7663 7 21.1579 7Z" stroke="#292D32" stroke-linecap="round" stroke-linejoin="round"/>
    <path d="M21.1579 11H26.8421C27.2337 11 27.5811 11.0014 27.8905 11.0064C29.5516 11.0271 30 11.1157 30 11.3571V11.6429C30 11.8843 29.5516 11.9729 27.8905 11.9936C27.5811 11.9986 27.2337 12 26.8421 12H21.1579C20.7663 12 20.4189 11.9986 20.1095 11.9936C18.4484 11.9729 18 11.8843 18 11.6429V11.3571C18 11.1157 18.4484 11.0271 20.1095 11.0064C20.4189 11.0014 20.7663 11 21.1579 11Z" stroke="#292D32" stroke-linecap="round" stroke-linejoin="round"/>
    <path d="M21.1579 15H26.8421C27.2337 15 27.5811 15.0014 27.8905 15.0064C29.5516 15.0271 30 15.1157 30 15.3571V15.6429C30 15.8843 29.5516 15.9729 27.8905 15.9936C27.5811 15.9986 27.2337 16 26.8421 16H21.1579C20.7663 16 20.4189 15.9986 20.1095 15.9936C18.4484 15.9729 18 15.8843 18 15.6429V15.3571C18 15.1157 18.4484 15.0271 20.1095 15.0064C20.4189 15.0014 20.7663 15 21.1579 15Z" stroke="#292D32" stroke-linecap="round" stroke-linejoin="round"/>
    <path d="M6 2H24.125" stroke="#292D32" stroke-width="1.5" stroke-linecap="round" stroke-linejoin="round"/>
    <path d="M6.875 22H25" stroke="#292D32" stroke-width="1.5" stroke-linecap="round" stroke-linejoin="round"/>
    </svg>
    