<svg width="173" height="149" viewBox="0 0 173 149" fill="none" xmlns="http://www.w3.org/2000/svg">
<rect width="172.058" height="148.784" rx="16.6239" fill="white"/>
<rect x="65.6646" y="13.2991" width="41.5598" height="48.2094" rx="3.32479" fill="#BFD4E4"/>
<path fillRule="evenodd" clipRule="evenodd" d="M86.4443 51.5342C78.6403 51.5342 72.314 45.2078 72.314 37.4038C72.314 29.5999 78.6403 23.2735 86.4443 23.2735C94.2483 23.2735 100.575 29.5999 100.575 37.4038C100.575 45.2078 94.2483 51.5342 86.4443 51.5342ZM86.4443 49.8719C93.3302 49.8719 98.9123 44.2898 98.9123 37.4039C98.9123 30.518 93.3302 24.936 86.4443 24.936C79.5585 24.936 73.9764 30.518 73.9764 37.4039C73.9764 44.2898 79.5585 49.8719 86.4443 49.8719Z" fill="#DDEAF3"/>
<path fillRule="evenodd" clipRule="evenodd" d="M72.314 37.4038C72.314 45.2078 78.6403 51.5342 86.4443 51.5342C94.2483 51.5342 100.575 45.2078 100.575 37.4038C100.575 29.5999 94.2483 23.2735 86.4443 23.2735C85.9852 23.2735 85.6131 23.6456 85.6131 24.1047C85.6131 24.5638 85.9852 24.9359 86.4443 24.9359C93.3302 24.9359 98.9123 30.518 98.9123 37.4038C98.9123 44.2897 93.3302 49.8718 86.4443 49.8718C79.5584 49.8718 73.9764 44.2897 73.9764 37.4038C73.9764 36.9448 73.6042 36.5726 73.1452 36.5726C72.6861 36.5726 72.314 36.9448 72.314 37.4038Z" fill="#ADC2D2"/>
<rect x="115.536" y="13.2991" width="41.5598" height="48.2094" rx="3.32479" fill="#BFD4E4"/>
<path fillRule="evenodd" clipRule="evenodd" d="M136.316 51.5342C128.512 51.5342 122.186 45.2078 122.186 37.4038C122.186 29.5999 128.512 23.2735 136.316 23.2735C144.12 23.2735 150.447 29.5999 150.447 37.4038C150.447 45.2078 144.12 51.5342 136.316 51.5342ZM136.316 49.8719C143.202 49.8719 148.784 44.2898 148.784 37.4039C148.784 30.518 143.202 24.936 136.316 24.936C129.431 24.936 123.848 30.518 123.848 37.4039C123.848 44.2898 129.431 49.8719 136.316 49.8719Z" fill="#DDEAF3"/>
<path fillRule="evenodd" clipRule="evenodd" d="M136.316 51.5342C144.12 51.5342 150.446 45.2078 150.446 37.4038C150.446 29.5999 144.12 23.2735 136.316 23.2735C135.857 23.2735 135.485 23.6456 135.485 24.1047C135.485 24.5638 135.857 24.9359 136.316 24.9359C143.202 24.9359 148.784 30.518 148.784 37.4038C148.784 44.2897 143.202 49.8718 136.316 49.8718C135.857 49.8718 135.485 50.2439 135.485 50.703C135.485 51.162 135.857 51.5342 136.316 51.5342Z" fill="#ADC2D2"/>
<rect x="15.7925" y="13.2991" width="41.5598" height="48.2094" rx="3.32479" fill="#BFD4E4"/>
<path fillRule="evenodd" clipRule="evenodd" d="M21.6113 34.9103C21.6113 33.9921 22.3556 33.2479 23.2737 33.2479H49.0408C49.9589 33.2479 50.7032 33.9921 50.7032 34.9103V39.8974C50.7032 40.8156 49.9589 41.5598 49.0408 41.5598H23.2737C22.3556 41.5598 21.6113 40.8156 21.6113 39.8974V34.9103Z" fill="#DDEAF3"/>
<path fillRule="evenodd" clipRule="evenodd" d="M21.6113 47.3782C21.6113 46.4601 22.3556 45.7158 23.2737 45.7158H42.4717C43.3898 45.7158 44.1341 46.4601 44.1341 47.3782V52.3654C44.1341 53.2835 43.3898 54.0278 42.4717 54.0278H23.2737C22.3556 54.0278 21.6113 53.2835 21.6113 52.3654V47.3782Z" fill="#DDEAF3"/>
<path fillRule="evenodd" clipRule="evenodd" d="M21.6113 22.4423C21.6113 21.5242 22.3556 20.7799 23.2737 20.7799H35.9923C36.9104 20.7799 37.6546 21.5242 37.6546 22.4423V27.4295C37.6546 28.3476 36.9104 29.0919 35.9923 29.0919H23.2737C22.3556 29.0919 21.6113 28.3476 21.6113 27.4295V22.4423Z" fill="#DDEAF3"/>
<path fillRule="evenodd" clipRule="evenodd" d="M157.096 135.485H15.7925C15.7925 135.485 20.6336 105.327 35.7412 105.327C50.8488 105.327 46.4867 119.692 61.5083 119.692C76.5299 119.692 69.0899 90.6003 82.2882 90.6003C95.4865 90.6003 88.9378 113.379 101.406 113.379C113.874 113.379 118.03 62.3396 132.16 80.6259C146.29 98.9122 139.322 113.379 147.32 113.379C155.319 113.379 157.096 135.485 157.096 135.485Z" fill="#BFD4E4"/>
<path fillRule="evenodd" clipRule="evenodd" d="M36.1569 108.887C38.2226 108.887 39.8973 107.212 39.8973 105.146C39.8973 103.081 38.2226 101.406 36.1569 101.406C34.0911 101.406 32.4165 103.081 32.4165 105.146C32.4165 107.212 34.0911 108.887 36.1569 108.887Z" fill="#DDEAF3"/>
<path fillRule="evenodd" clipRule="evenodd" d="M29.0921 84.782C28.174 84.782 27.4297 85.5263 27.4297 86.4444V91.4316C27.4297 92.3497 28.174 93.094 29.0921 93.094H34.7208L35.4992 94.1028C35.8319 94.534 36.4825 94.534 36.8153 94.1028L37.5937 93.094H59.0152C59.9333 93.094 60.6776 92.3497 60.6776 91.4316V86.4444C60.6776 85.5263 59.9333 84.782 59.0152 84.782H29.0921Z" fill="#BFD4E4"/>
</svg>
