<svg width="160" height="138" viewBox="0 0 160 138" fill="none" xmlns="http://www.w3.org/2000/svg">
<rect y="0.173218" width="159.125" height="137.601" rx="15.3744" fill="white"/>
<rect x="10.7617" y="69.3582" width="137.601" height="19.218" rx="7.68721" fill="#BFD4E4"/>
<rect x="10.7617" y="94.726" width="137.601" height="29.9801" rx="7.68721" fill="#BFD4E4"/>
<rect x="10.7617" y="12.4727" width="137.601" height="48.4294" rx="4.00795" fill="#EFF2F6"/>
<path d="M87.5777 42.922V30.4528C87.5777 29.4731 86.7761 28.6715 85.7964 28.6715H73.3272C72.3475 28.6715 71.5459 29.4731 71.5459 30.4528V42.922C71.5459 43.9017 72.3475 44.7033 73.3272 44.7033H85.7964C86.7761 44.7033 87.5777 43.9017 87.5777 42.922ZM76.4445 38.0234L78.6711 40.7043L81.7884 36.6874L85.7964 42.0314H73.3272L76.4445 38.0234Z" fill="#9CB0C9"/>
</svg>
