<svg width="171" height="148" viewBox="0 0 171 148" fill="none" xmlns="http://www.w3.org/2000/svg">
<rect width="171" height="147.87" rx="16.5217" fill="white"/>
<rect x="11.5654" y="11.5652" width="147.87" height="52.0435" rx="4.30705" fill="#EFF2F6"/>
<path d="M46.5506 42.4422V39.8959L52.9351 29.8376H55.1305V33.3621H53.8312L49.8063 39.7316V39.8511H58.879V42.4422H46.5506ZM53.8909 45.1304V41.6656L53.9506 40.5381V29.8376H56.9823V45.1304H53.8909ZM67.0295 45.4665C65.7451 45.4615 64.64 45.1454 63.714 44.5181C62.7931 43.8909 62.0837 42.9824 61.5859 41.7926C61.093 40.6028 60.8491 39.1716 60.8541 37.4989C60.8541 35.8313 61.1005 34.41 61.5933 33.2352C62.0911 32.0603 62.8005 31.1667 63.7215 30.5544C64.6474 29.9371 65.7501 29.6285 67.0295 29.6285C68.3088 29.6285 69.409 29.9371 70.33 30.5544C71.2559 31.1717 71.9678 32.0678 72.4656 33.2426C72.9634 34.4125 73.2098 35.8313 73.2048 37.4989C73.2048 39.1766 72.9559 40.6103 72.4581 41.8001C71.9653 42.9898 71.2584 43.8983 70.3374 44.5256C69.4165 45.1528 68.3138 45.4665 67.0295 45.4665ZM67.0295 42.7857C67.9056 42.7857 68.605 42.3452 69.1277 41.464C69.6504 40.5829 69.9093 39.2612 69.9043 37.4989C69.9043 36.339 69.7849 35.3733 69.5459 34.6017C69.3119 33.8301 68.9784 33.2501 68.5453 32.8618C68.1172 32.4735 67.6119 32.2794 67.0295 32.2794C66.1583 32.2794 65.4613 32.7149 64.9386 33.5861C64.4159 34.4573 64.1521 35.7616 64.1471 37.4989C64.1471 38.6738 64.2641 39.6545 64.4981 40.441C64.737 41.2226 65.073 41.81 65.5061 42.2033C65.9392 42.5916 66.447 42.7857 67.0295 42.7857ZM83.8811 42.263V41.4566C83.8811 40.8443 84.0105 40.2817 84.2694 39.769C84.5332 39.2512 84.9141 38.8381 85.4119 38.5294C85.9147 38.2158 86.527 38.059 87.2488 38.059C87.9806 38.059 88.5954 38.2133 89.0932 38.5219C89.596 38.8306 89.9743 39.2438 90.2282 39.7615C90.4871 40.2743 90.6165 40.8393 90.6165 41.4566V42.263C90.6165 42.8753 90.4871 43.4404 90.2282 43.9581C89.9694 44.4708 89.5885 44.8815 89.0857 45.1902C88.5829 45.5038 87.9706 45.6606 87.2488 45.6606C86.517 45.6606 85.9022 45.5038 85.4044 45.1902C84.9066 44.8815 84.5282 44.4708 84.2694 43.9581C84.0105 43.4404 83.8811 42.8753 83.8811 42.263ZM86.054 41.4566V42.263C86.054 42.6165 86.1387 42.95 86.3079 43.2636C86.4822 43.5773 86.7958 43.7341 87.2488 43.7341C87.7018 43.7341 88.0105 43.5797 88.1747 43.2711C88.344 42.9625 88.4286 42.6264 88.4286 42.263V41.4566C88.4286 41.0932 88.349 40.7546 88.1897 40.441C88.0304 40.1274 87.7167 39.9706 87.2488 39.9706C86.8008 39.9706 86.4896 40.1274 86.3154 40.441C86.1412 40.7546 86.054 41.0932 86.054 41.4566ZM76.033 33.5115V32.705C76.033 32.0877 76.165 31.5227 76.4288 31.0099C76.6927 30.4922 77.0735 30.079 77.5713 29.7704C78.0741 29.4617 78.6814 29.3074 79.3933 29.3074C80.1301 29.3074 80.7473 29.4617 81.2452 29.7704C81.743 30.079 82.1213 30.4922 82.3802 31.0099C82.639 31.5227 82.7685 32.0877 82.7685 32.705V33.5115C82.7685 34.1287 82.6366 34.6938 82.3727 35.2065C82.1138 35.7193 81.733 36.13 81.2302 36.4386C80.7324 36.7423 80.1201 36.8941 79.3933 36.8941C78.6665 36.8941 78.0517 36.7398 77.5489 36.4311C77.0511 36.1175 76.6727 35.7068 76.4139 35.199C76.16 34.6863 76.033 34.1238 76.033 33.5115ZM78.2209 32.705V33.5115C78.2209 33.8749 78.3056 34.2109 78.4748 34.5195C78.6491 34.8282 78.9552 34.9825 79.3933 34.9825C79.8513 34.9825 80.1624 34.8282 80.3267 34.5195C80.496 34.2109 80.5806 33.8749 80.5806 33.5115V32.705C80.5806 32.3416 80.5009 32.0031 80.3416 31.6895C80.1823 31.3758 79.8662 31.219 79.3933 31.219C78.9502 31.219 78.6441 31.3783 78.4748 31.6969C78.3056 32.0155 78.2209 32.3515 78.2209 32.705ZM77.0187 45.1304L87.5326 29.8376H89.489L78.9751 45.1304H77.0187ZM103.66 45.3544C102.5 45.3544 101.497 45.108 100.651 44.6152C99.8093 44.1174 99.1596 43.4254 98.7016 42.5393C98.2436 41.6482 98.0147 40.6153 98.0147 39.4404C98.0147 38.2556 98.2436 37.2202 98.7016 36.3341C99.1596 35.443 99.8093 34.751 100.651 34.2582C101.497 33.7604 102.5 33.5115 103.66 33.5115C104.82 33.5115 105.82 33.7604 106.662 34.2582C107.508 34.751 108.16 35.443 108.618 36.3341C109.076 37.2202 109.305 38.2556 109.305 39.4404C109.305 40.6153 109.076 41.6482 108.618 42.5393C108.16 43.4254 107.508 44.1174 106.662 44.6152C105.82 45.108 104.82 45.3544 103.66 45.3544ZM103.675 42.8903C104.202 42.8903 104.643 42.7409 104.996 42.4422C105.35 42.1386 105.616 41.7254 105.795 41.2027C105.98 40.68 106.072 40.0851 106.072 39.418C106.072 38.7509 105.98 38.1561 105.795 37.6334C105.616 37.1106 105.35 36.6975 104.996 36.3938C104.643 36.0901 104.202 35.9383 103.675 35.9383C103.142 35.9383 102.694 36.0901 102.331 36.3938C101.972 36.6975 101.701 37.1106 101.517 37.6334C101.338 38.1561 101.248 38.7509 101.248 39.418C101.248 40.0851 101.338 40.68 101.517 41.2027C101.701 41.7254 101.972 42.1386 102.331 42.4422C102.694 42.7409 103.142 42.8903 103.675 42.8903ZM117.541 33.6608V36.0503H110.462V33.6608H117.541ZM112.083 45.1304V32.8319C112.083 32.0006 112.245 31.3111 112.568 30.7635C112.897 30.2159 113.345 29.8052 113.912 29.5314C114.48 29.2576 115.125 29.1207 115.846 29.1207C116.334 29.1207 116.78 29.1581 117.183 29.2327C117.591 29.3074 117.895 29.3746 118.094 29.4344L117.526 31.8239C117.402 31.784 117.248 31.7467 117.064 31.7119C116.884 31.677 116.7 31.6596 116.511 31.6596C116.043 31.6596 115.717 31.7691 115.533 31.9881C115.349 32.2022 115.256 32.5034 115.256 32.8917V45.1304H112.083ZM125.653 33.6608V36.0503H118.574V33.6608H125.653ZM120.194 45.1304V32.8319C120.194 32.0006 120.356 31.3111 120.68 30.7635C121.008 30.2159 121.456 29.8052 122.024 29.5314C122.591 29.2576 123.236 29.1207 123.958 29.1207C124.445 29.1207 124.891 29.1581 125.294 29.2327C125.702 29.3074 126.006 29.3746 126.205 29.4344L125.638 31.8239C125.513 31.784 125.359 31.7467 125.175 31.7119C124.996 31.677 124.811 31.6596 124.622 31.6596C124.154 31.6596 123.828 31.7691 123.644 31.9881C123.46 32.2022 123.368 32.5034 123.368 32.8917V45.1304H120.194Z" fill="#9CB0C9"/>
<rect x="11.5654" y="74.3478" width="147.87" height="20.6522" rx="8.26087" fill="#BFD4E4"/>
<rect x="11.5654" y="101.609" width="147.87" height="32.2174" rx="8.26087" fill="#BFD4E4"/>
</svg>
