<svg width="31" height="24" viewBox="0 0 31 24" fill="none" xmlns="http://www.w3.org/2000/svg">
    <path d="M5.15789 6H10.8421C11.2337 6 11.5811 6.01714 11.8905 6.07714C13.5516 6.32571 14 7.38857 14 10.2857V13.7143C14 16.6114 13.5516 17.6743 11.8905 17.9229C11.5811 17.9829 11.2337 18 10.8421 18H5.15789C4.76632 18 4.41895 17.9829 4.10947 17.9229C2.44842 17.6743 2 16.6114 2 13.7143V10.2857C2 7.38857 2.44842 6.32571 4.10947 6.07714C4.41895 6.01714 4.76632 6 5.15789 6Z" stroke="#292D32" stroke-width="1.5" stroke-linecap="round" stroke-linejoin="round"/>
    <path d="M21.1579 6H26.8421C27.2337 6 27.5811 6.01714 27.8905 6.07714C29.5516 6.32571 30 7.38857 30 10.2857V13.7143C30 16.6114 29.5516 17.6743 27.8905 17.9229C27.5811 17.9829 27.2337 18 26.8421 18H21.1579C20.7663 18 20.4189 17.9829 20.1095 17.9229C18.4484 17.6743 18 16.6114 18 13.7143V10.2857C18 7.38857 18.4484 6.32571 20.1095 6.07714C20.4189 6.01714 20.7663 6 21.1579 6Z" stroke="#292D32" stroke-width="1.5" stroke-linecap="round" stroke-linejoin="round"/>
    <path d="M6.27148 2H24.3965" stroke="#292D32" stroke-width="1.5" stroke-linecap="round" stroke-linejoin="round"/>
    <path d="M6.875 22H25" stroke="#292D32" stroke-width="1.5" stroke-linecap="round" stroke-linejoin="round"/>
    </svg>
    