<svg xmlns="http://www.w3.org/2000/svg" width="24" height="24" viewBox="0 0 24 24" fill="none">
    <path d="M3.6001 5.99998C3.6001 5.36346 3.85295 4.75301 4.30304 4.30292C4.75313 3.85283 5.36358 3.59998 6.0001 3.59998H16.0549C16.6914 3.60011 17.3017 3.85306 17.7517 4.30318L19.6969 6.24838C20.147 6.69836 20.4 7.30871 20.4001 7.94518V18C20.4001 18.6365 20.1472 19.2469 19.6972 19.697C19.2471 20.1471 18.6366 20.4 18.0001 20.4H6.0001C5.36358 20.4 4.75313 20.1471 4.30304 19.697C3.85295 19.2469 3.6001 18.6365 3.6001 18V5.99998ZM6.0001 4.79998C5.68184 4.79998 5.37661 4.9264 5.15157 5.15145C4.92653 5.37649 4.8001 5.68172 4.8001 5.99998V18C4.8001 18.3182 4.92653 18.6235 5.15157 18.8485C5.37661 19.0735 5.68184 19.2 6.0001 19.2V13.8C6.0001 13.3226 6.18974 12.8647 6.52731 12.5272C6.86487 12.1896 7.32271 12 7.8001 12H16.2001C16.6775 12 17.1353 12.1896 17.4729 12.5272C17.8105 12.8647 18.0001 13.3226 18.0001 13.8V19.2C18.3184 19.2 18.6236 19.0735 18.8486 18.8485C19.0737 18.6235 19.2001 18.3182 19.2001 18V7.94518C19.2 7.62694 19.0736 7.32177 18.8485 7.09678L16.9033 5.15158C16.6783 4.92652 16.3731 4.80004 16.0549 4.79998H15.6001V7.79998C15.6001 8.27737 15.4105 8.7352 15.0729 9.07277C14.7353 9.41033 14.2775 9.59998 13.8001 9.59998H9.0001C8.52271 9.59998 8.06487 9.41033 7.7273 9.07277C7.38974 8.7352 7.2001 8.27737 7.2001 7.79998V4.79998H6.0001ZM8.4001 4.79998V7.79998C8.4001 7.95911 8.46331 8.11172 8.57583 8.22424C8.68836 8.33676 8.84097 8.39998 9.0001 8.39998H13.8001C13.9592 8.39998 14.1118 8.33676 14.2244 8.22424C14.3369 8.11172 14.4001 7.95911 14.4001 7.79998V4.79998H8.4001ZM16.8001 19.2V13.8C16.8001 13.6408 16.7369 13.4882 16.6244 13.3757C16.5118 13.2632 16.3592 13.2 16.2001 13.2H7.8001C7.64097 13.2 7.48836 13.2632 7.37583 13.3757C7.26331 13.4882 7.2001 13.6408 7.2001 13.8V19.2H16.8001Z" fill="white"/>
  </svg>